<svg xmlns="http://www.w3.org/2000/svg" xmlns:xlink="http://www.w3.org/1999/xlink" width="422.209" height="40" viewBox="0 0 422.209 40">
  <defs>
    <clipPath id="clip-path">
      <rect id="長方形_973" data-name="長方形 973" width="422.209" height="40" fill="none"/>
    </clipPath>
  </defs>
  <g id="logo_w" transform="translate(0 0)">
    <g id="グループ_1303" data-name="グループ 1303" transform="translate(0 0)" clip-path="url(#clip-path)">
      <path id="パス_428" data-name="パス 428" d="M65.833,5.3h-.658V8.755c.235-.073.534-.175.9-.306l.041,1.909a27.037,27.037,0,0,1-4.128,1.4L61.671,9.6c.377-.064.877-.162,1.5-.3v-4H61.885V3.338h1.289V.188h2v3.15h.937v.978l.492-.134V1.418h1.909V3.69l1.064-.279V.188h1.915V2.914l3.016-.786c.006.305.007.524.007.652q0,2.234-.194,4.655A2.392,2.392,0,0,1,73.9,8.842a1.2,1.2,0,0,1-.937.392h-1l-.385-2.027h.445a.4.4,0,0,0,.452-.311A11.992,11.992,0,0,0,72.6,4.729l-1.11.285V9.881H69.576V5.511l-1.064.273V10.59c0,.2.119.306.359.306h3.463c.245,0,.4-.044.46-.131a3.661,3.661,0,0,0,.223-1.411l1.862.433A6.9,6.9,0,0,1,74.5,12.06a1.29,1.29,0,0,1-.594.64,1.753,1.753,0,0,1-.81.2H68.14a1.487,1.487,0,0,1-1.3-.518,1.69,1.69,0,0,1-.233-.969V6.276l-.644.166Z" transform="translate(-15.743 -0.048)" fill="#fff"/>
      <path id="パス_429" data-name="パス 429" d="M86.067,7.029a7.118,7.118,0,0,1-.445,1.7,9.705,9.705,0,0,1-3.962,4.4l-1.276-2.043a6.715,6.715,0,0,0,3.11-3.011,10.984,10.984,0,0,0,.687-4.346H80.636V1.719h5.352V.195h2.12V1.719h5.446V3.727h-7.2c-.015.494-.034.934-.061,1.315h6q-.161,5.664-.778,6.921A1.925,1.925,0,0,1,89.8,13.074h-3.2l-.427-2.109h2.626a.808.808,0,0,0,.664-.305,1.318,1.318,0,0,0,.253-.512,16.323,16.323,0,0,0,.293-2.359c.022-.277.034-.527.034-.76Z" transform="translate(-20.52 -0.05)" fill="#fff"/>
      <path id="パス_430" data-name="パス 430" d="M101.954,5.549q-.108-.48-.3-1.056A11.962,11.962,0,0,1,99.933,5.6l-.725-1.9a9.783,9.783,0,0,0,1.629-.966,6.333,6.333,0,0,0-1.282-1.46L101.117.1a5.922,5.922,0,0,1,1.17,1.2,6.3,6.3,0,0,0,.692-1.164l1.741.6a9.39,9.39,0,0,1-1.5,2.275,13.409,13.409,0,0,1,.884,5.2,8.735,8.735,0,0,1-.652,4.05,1.889,1.889,0,0,1-1.787.811H99.973l-.366-1.96h1.065a1.371,1.371,0,0,0,1.123-.381,4.492,4.492,0,0,0,.451-2.5c0-.07,0-.215-.006-.433a11.82,11.82,0,0,1-2.387,1.975l-.678-2.007a9.832,9.832,0,0,0,2.779-2.214m8.409,6.6a50.108,50.108,0,0,1-6.023.751l-.279-2.007q.431-.018,3.072-.207V8.136h-2.667V2.1h2.667V.179h2.02V2.1h2.78V8.136h-2.866v2.379c.448-.052.784-.1,1.01-.134q-.267-1.06-.412-1.536l1.709-.332a16.091,16.091,0,0,1,.637,2.136,14.7,14.7,0,0,1,.352,2.074l-1.92.389c-.023-.317-.05-.64-.08-.963m-3.23-8.189h-1V6.253h1Zm2.99,0h-1.017V6.253h1.017Z" transform="translate(-25.317 -0.025)" fill="#fff"/>
      <path id="パス_431" data-name="パス 431" d="M118.236,10.564h7.138a42.956,42.956,0,0,0,1.53-6.222l2.333.355a40.52,40.52,0,0,1-1.682,5.867h3.529v2.043H118.236Zm5.3-10.4h2.221V1.951h5.019V3.985H118.541V1.951h4.992ZM122.317,4.4a16.4,16.4,0,0,1,.758,2.648,26.033,26.033,0,0,1,.426,2.758l-2.2.325a20.333,20.333,0,0,0-1.023-5.259Z" transform="translate(-30.182 -0.043)" fill="#fff"/>
      <path id="パス_432" data-name="パス 432" d="M140.137,6.083V13.05H138.07V8.364c-.35.29-.64.527-.87.7l-.593-2.545a9.105,9.105,0,0,0,1.769-1.556A10.637,10.637,0,0,0,139.8,3.011l1.722.853a18.114,18.114,0,0,1-1.389,2.219m.85-5.457a9.875,9.875,0,0,1-1.428,2.094,9.376,9.376,0,0,1-2.014,1.775l-.912-2.036A7.438,7.438,0,0,0,139.115,0Zm8.8,3.689V6.281h-1.848V11.52a1.566,1.566,0,0,1-.352,1.157,1.534,1.534,0,0,1-1.117.372h-2.825l-.346-2.094h2.095a.466.466,0,0,0,.339-.093.484.484,0,0,0,.086-.326V6.281h-4.433V4.314Zm-.493-1.763h-7.377V.617h7.377Z" transform="translate(-34.872 0)" fill="#fff"/>
      <path id="パス_433" data-name="パス 433" d="M160.788,11.407q-1.376.332-4.754,1.012l-.266.053-.252-2.075.484-.061h.054V3.87H157.8v6.182l.053-.015.512-.093.052-.012V2.458h-2.685V.532h6.2V2.458h-1.781V4.885h1.062a10.23,10.23,0,0,0,1.7-4.78l2.022.166q-.122.811-.3,1.624h3.835V3.943h-.623a13.975,13.975,0,0,1-.527,3.3,8.985,8.985,0,0,1-.97,2.092l-.028.055a11.087,11.087,0,0,0,2.367,1.655l-1.1,2.086a12.866,12.866,0,0,1-2.6-2.1,10.838,10.838,0,0,1-3.184,2.074Zm1.136-.731a7.127,7.127,0,0,0,1.849-1.282A14.017,14.017,0,0,1,162.6,6.653c-.121.166-.272.355-.458.573l-.52-.713v.314h-1.462V9.565q1.021-.227,1.7-.41Zm3.085-2.964a9.506,9.506,0,0,0,.944-3.77h-1.916c-.061.162-.115.3-.159.413a9.926,9.926,0,0,0,1.13,3.357" transform="translate(-39.699 -0.027)" fill="#fff"/>
      <path id="パス_434" data-name="パス 434" d="M178.175,8.416a20.458,20.458,0,0,1-2.744,4.661l-1.311-1.894a18.248,18.248,0,0,0,2.466-3.936ZM175.245,3.6a7.3,7.3,0,0,1,1.181.6,9.573,9.573,0,0,1,1.218.832l-1.19,1.7a11.521,11.521,0,0,0-2.274-1.489ZM175.636.16a8.276,8.276,0,0,1,1.183.565,10.454,10.454,0,0,1,1.264.771l-1.236,1.722a11.353,11.353,0,0,0-2.327-1.475Zm8.45,10.391a14.536,14.536,0,0,0-1.117-1.81l1.722-.875A14.809,14.809,0,0,1,186.059,9.9a18.554,18.554,0,0,1,1.2,2.446l-1.921.917c-.106-.274-.241-.594-.4-.958q-2.833.38-7.033.532l-.253-1.969.226-.006.479-.02.471-.012a21.309,21.309,0,0,0,1.31-3.409h-2.2v-1.9h3.61V3.776h-3.1V1.836h3.1V.227h2.068V1.836h3.117v1.94h-3.117V5.518h3.575v1.9h-4.78q-.637,1.758-1.361,3.322l.3-.006q.439-.022,1.031-.061c.789-.061,1.357-.105,1.708-.125" transform="translate(-44.448 -0.041)" fill="#fff"/>
      <path id="パス_435" data-name="パス 435" d="M198.449.258h2.2V2.367A10.51,10.51,0,0,0,201,4.954a9.808,9.808,0,0,0,.912,2.385,9.158,9.158,0,0,0,4.26,3.823l-1.357,1.975a10.734,10.734,0,0,1-5.272-6.388,9.745,9.745,0,0,1-2.152,3.86,11.873,11.873,0,0,1-3.152,2.528l-1.376-1.929a8.783,8.783,0,0,0,4.467-4.134,10.929,10.929,0,0,0,1.1-4.2c.013-.194.019-.366.019-.512Z" transform="translate(-49.231 -0.066)" fill="#fff"/>
      <path id="パス_436" data-name="パス 436" d="M87.227,25.064H76.754V26.1h8.9V36.532H79.741a19.318,19.318,0,0,0,7.9,4.134l-2.344,3.983a23.082,23.082,0,0,1-4.433-2.435,23.378,23.378,0,0,1-4.108-3.828v6.466H72.81V38.516a18.975,18.975,0,0,1-4.019,3.593,26.261,26.261,0,0,1-4.676,2.6l-2.295-3.942a35.415,35.415,0,0,0,4.187-1.65,14.8,14.8,0,0,0,3.75-2.589H63.974V26.1H72.81V25.064H62.324V21.6H72.81V19.77h3.943V21.6H87.227ZM67.721,30.1H72.81V28.841H67.721Zm0,3.709H72.81V32.55H67.721ZM81.958,28.84h-5.2V30.1h5.2Zm0,3.709h-5.2v1.262h5.2Z" transform="translate(-15.781 -5.047)" fill="#fff"/>
      <path id="パス_437" data-name="パス 437" d="M106.765,38.074a20.525,20.525,0,0,1-5.7,6.389l-2.64-3.116a19.509,19.509,0,0,0,2.86-2.513,16.681,16.681,0,0,0,2.164-2.744ZM123.653,25.28H98.675V21.6h10.2V19.805h4.16V21.6h10.615Zm-2.319,1.288V35.82h-8.282v6.467q0,2.614-2.307,2.615h-4.663l-.85-4.148H108.3q.734,0,.734-.695V35.82h-8.027V26.569Zm-4.186,3.351H105.09v2.5h12.058ZM121,44.387a25.824,25.824,0,0,1-3.336-2.68,27.9,27.9,0,0,1-3-3.648l3.4-2.048a15.1,15.1,0,0,0,2.613,2.8,17.288,17.288,0,0,0,3.157,2.2Z" transform="translate(-25.126 -5.056)" fill="#fff"/>
      <path id="パス_438" data-name="パス 438" d="M139.369,30.611h-4.535V27.12H139.1v-2h-3.517v-3.4H139.1V19.789h3.788v1.932h3.246v.206q.258-.632.515-1.443l3.028,1.044V20.394h9.971v3.7a39.378,39.378,0,0,1-2.191,6.2,16.249,16.249,0,0,1,1.509,2.266,9.621,9.621,0,0,1,1.067,4.652q0,3.233-1.313,4.419a3.584,3.584,0,0,1-2.448.707h-2.048l-.594-3.762h.992a1.257,1.257,0,0,0,.992-.32A2.8,2.8,0,0,0,156,36.537a7.929,7.929,0,0,0-1.108-4.047,14.245,14.245,0,0,0-1.314-1.778,37.438,37.438,0,0,0,2.191-6.621h-2.294v20.7h-3.8V22.6a34.668,34.668,0,0,1-2.525,4.523h2.1v3.491h-4.844q-.712.76-1.3,1.338h5.025V43.725h-7.806v.951H136.7V36.6c-.266.146-.67.355-1.212.632l-.939-3.724a23.241,23.241,0,0,0,4.817-2.9m5.179,4.341h-4.224v1.443h4.224Zm0,4.2h-4.224v1.443h4.224ZM143.26,27.12a21.968,21.968,0,0,0,1.52-2.089h-2.138V27.12Z" transform="translate(-34.347 -5.052)" fill="#fff"/>
      <path id="パス_439" data-name="パス 439" d="M171.435,39.918h13.836a83.336,83.336,0,0,0,2.965-12.058l4.52.684A78.094,78.094,0,0,1,189.5,39.918h6.839v3.957h-24.9ZM181.7,19.769h4.3v3.453h9.725v3.942h-23.7V23.222H181.7Zm-2.358,8.207a31.588,31.588,0,0,1,1.469,5.129,49.579,49.579,0,0,1,.824,5.346l-4.264.632a39.362,39.362,0,0,0-1.985-10.191Z" transform="translate(-43.763 -5.046)" fill="#fff"/>
      <path id="パス_440" data-name="パス 440" d="M214.593,36.059l-1.816-1.4q-.246,6.79-2.358,10.085l-3.259-2.923a12.925,12.925,0,0,0,1.4-3.581,20.883,20.883,0,0,0,.4-4.224v-7.8h4.214a8,8,0,0,0-.427-1.816h-3.864V21.036h9.055V19.684h4.085v1.352h9.211V24.4h-3.8c-.128.48-.331,1.088-.6,1.816h5.616V29.54H224.5v1.726h6.932v3.208H224.5v1.533h5.952v3H224.5v1.6h7.949v3.479H212.416V40.606h8.272v-1.6h-6.094Zm-1.8-2.28a12.107,12.107,0,0,0,2.436-4.239h-2.436Zm5.6-2.513h2.294V29.54h-5.23l3.336.567c-.138.454-.271.841-.4,1.158m-2.537,4.742h4.831V34.474h-3.839a14.142,14.142,0,0,1-.992,1.533M223.263,24.4h-6.479a15.577,15.577,0,0,1,.4,1.533l.064.282h5.539c.215-.745.376-1.353.478-1.816" transform="translate(-52.882 -5.025)" fill="#fff"/>
      <path id="パス_441" data-name="パス 441" d="M251.6,38.269h-7.523V35.188h10.487V34.146H245.8V31.621h8.761V30.562H245.1v-2.95h5.332a9.791,9.791,0,0,0-.541-1.364h-5.81V22.99h3.3a17.317,17.317,0,0,0-1.148-2.408l3.826-.722a19.259,19.259,0,0,1,1.133,3.13h1.122V19.935H255.8V22.99h1.468V19.935h3.505V22.99h1.068a17.435,17.435,0,0,0,1.134-3.13l3.814.722a20.247,20.247,0,0,1-1.082,2.408h3.183v3.258H263.13c-.035.1-.107.34-.218.71q-.065.206-.244.655H268v2.95h-9.533v1.059h8.824v2.525h-8.824v1.042h10.424v3.081h-7.525a24.26,24.26,0,0,0,7.806,2.717l-1.957,3.634a29.38,29.38,0,0,1-5.437-2.164,17.251,17.251,0,0,1-3.311-2.446v4.829h-3.9V40.11a18.978,18.978,0,0,1-2.9,2.15,30.963,30.963,0,0,1-5.874,2.371L243.923,41.1a30.731,30.731,0,0,0,7.677-2.833m7.562-12.021h-5.229c.085.2.175.433.271.71.084.238.165.459.244.655h4.3a14.151,14.151,0,0,0,.412-1.364" transform="translate(-62.267 -5.07)" fill="#fff"/>
      <path id="パス_442" data-name="パス 442" d="M287.02,31.147c.756-.239,1.475-.489,2.164-.748l.09,3.762c-.757.319-1.507.6-2.254.852v7.651a2.082,2.082,0,0,1-.556,1.559,2.169,2.169,0,0,1-1.623.658h-3.774L280.437,41h2.138q.632,0,.632-.594V36.223c-.833.25-1.72.477-2.653.684l-.285-3.994q1.405-.284,2.939-.684V27.72h-2.875V24.086h2.875V19.825h3.814v4.261h2.164V27.72H287.02Zm10.138,10.641a29.75,29.75,0,0,1-7.549,3.272l-1.74-3.814A26.227,26.227,0,0,0,294.13,39.1a20.243,20.243,0,0,1-3.078-5.118l3.1-1.507h-4.021V28.791h5.219V26.085h-5.76V22.362h5.76V19.825h3.93v2.537h5.976v3.724h-5.976v2.706h4.92v3.825a19.036,19.036,0,0,1-3.747,6.467,23.434,23.434,0,0,0,5.23,1.92l-1.946,4.058a28.392,28.392,0,0,1-6.583-3.272m-2.578-9.315a13.964,13.964,0,0,0,2.8,4.343,12.191,12.191,0,0,0,2.589-4.343Z" transform="translate(-71.545 -5.061)" fill="#fff"/>
      <path id="パス_443" data-name="パス 443" d="M323.287,28.105a29.6,29.6,0,0,1-1.533,2.808V44.737h-3.66V35.524q-.567.542-1.221,1.1l-.827-5.05a16.963,16.963,0,0,0,4.34-5.746l2.657,1.224v-2.7h3.322V19.809h3.491v4.535h1.65c-.017-.062-.035-.123-.052-.181a13.876,13.876,0,0,0-1.03-2.525q-.231-.455-.463-.838l2.344-1.12a14.639,14.639,0,0,1,1.83,3.555V20.53H341.1v3.788h-6.968v-.864l-2.3.891h1.74v3.761h-3.724V44.737h-3.348V28.105Zm-3.75-8.593,3.6.954a19.234,19.234,0,0,1-5.8,7.046l-1.225-4.136a12.269,12.269,0,0,0,3.427-3.864m3.581,10.743h2.642c-.026,1.94-.072,3.639-.142,5.088a23.982,23.982,0,0,1-1.042,6.391L321.83,39.39a15.256,15.256,0,0,0,.762-2.732,27.556,27.556,0,0,0,.553-5.437c0-.154-.009-.474-.027-.966m8.067,10.037c.024-.352.038-.713.038-1.083a68.839,68.839,0,0,0-.646-8.838l2.822-.218a70.038,70.038,0,0,1,1.12,9.725ZM341.53,27.37v3.739h-1.379V42.287a2.273,2.273,0,0,1-.71,1.947,2.838,2.838,0,0,1-1.725.5h-4.073l-.6-3.982H335.5a1.267,1.267,0,0,0,.631-.1.665.665,0,0,0,.244-.605V31.108h-2.653V27.37Z" transform="translate(-80.678 -4.981)" fill="#fff"/>
      <path id="パス_444" data-name="パス 444" d="M361.991,42.282v.669H357.7v1.74h-3.336V35.8q-.375.4-.917.89l-1.21-4.882a9.1,9.1,0,0,0,2.089-3.272,14.472,14.472,0,0,0,.76-3.9h-2.307V20.949h9.457v3.683h-3.581a28.88,28.88,0,0,1-.748,4.058h4.084V41.676q3.051-2.526,3.052-8.232V33.3h-2.318V29.513h2.318V24.632h-1.856V20.949h14.132v3.683H375.35v4.881h2.382V33.3H375.35v11.84H371.5V33.3h-2.706v.311q0,8.126-4.058,11.529Zm-2.81-10.127h-1.676v7.177h1.676Zm9.611-2.642H371.5V24.632h-2.706Z" transform="translate(-89.916 -5.348)" fill="#fff"/>
      <path id="パス_445" data-name="パス 445" d="M397.94,32.573a22.779,22.779,0,0,0,.181-2.359h3.968c-.026.707-.082,1.492-.169,2.359h7.241v7.756q0,.489.3.489h1.1c.128,0,.229-.09.308-.271a9.648,9.648,0,0,0,.128-1.789l.038-1.262c0-.053,0-.16-.012-.323l3.3.824a29.464,29.464,0,0,1-.477,5.024,1.817,1.817,0,0,1-1.83,1.574h-4.614a2.167,2.167,0,0,1-1.737-.646,2.533,2.533,0,0,1-.439-1.661V36.219h-4.032a10.635,10.635,0,0,1-1.274,2.758,16.153,16.153,0,0,1-8.955,6.042l-2.01-3.9q5.114-1.122,7.421-3.75a5.2,5.2,0,0,0,.684-1.146h-6.673V32.573Zm-1.172-7.406h-2.961v2.3h-3.878V21.778h9.777V19.91h3.878v1.868h9.906v5.693h-.8a7.31,7.31,0,0,1-.684,2.653,1.917,1.917,0,0,1-1.74.969h-5.824a1.872,1.872,0,0,1-2.1-2.138V25.167h-2.01q-1.008,5.432-8.529,6.982l-1.661-3.505q3.748-.423,5.23-1.571a3.99,3.99,0,0,0,1.39-1.906m9.1,0V27.2c0,.422.145.632.436.632h1.83a.6.6,0,0,0,.6-.462,6.092,6.092,0,0,0,.207-1.007l.643.131V25.167Z" transform="translate(-99.287 -5.082)" fill="#fff"/>
      <path id="パス_446" data-name="パス 446" d="M436.4,26.405l13.349-1.132a16.564,16.564,0,0,1-2.254,7.549,14.891,14.891,0,0,1-5.7,4.87l-2.563-3.246a11.09,11.09,0,0,0,3.246-1.946,8.613,8.613,0,0,0,2-2.834l-8.076.786v7.42a2.886,2.886,0,0,0,.18,1.289c.238.36.966.541,2.176.541h6.106a21.543,21.543,0,0,0,4.124-.375V43.54a30.768,30.768,0,0,1-3.992.232h-7.177a6.562,6.562,0,0,1-4.354-1.25q-1.353-1.17-1.353-4.2V30.877l-5.049.489-.308-4.134,5.358-.451V21.137H436.4Z" transform="translate(-108.937 -5.396)" fill="#fff"/>
      <path id="パス_447" data-name="パス 447" d="M465.84,22.711a35.931,35.931,0,0,1,8.658,3.8l-2.243,3.878a32.868,32.868,0,0,0-8.308-4.084Zm-.128,21.643-1.405-4.561q8.257-.655,12.561-4.392,4.006-3.479,6.133-10.939l3.98,1.973q-2.745,9.185-8.451,13.41-4.482,3.312-12.818,4.509" transform="translate(-118.432 -5.797)" fill="#fff"/>
      <path id="パス_448" data-name="パス 448" d="M511.592,36.067a25.558,25.558,0,0,0-5.245-3.3l2.822-2.848a24.335,24.335,0,0,1,5.475,3.014,16.91,16.91,0,0,0,2.473-5.385h-7.625a24.171,24.171,0,0,1-7.113,6.223l-2.691-3.055a18.878,18.878,0,0,0,5.617-4.4,20.233,20.233,0,0,0,3.322-5.836l4.509.579a17.93,17.93,0,0,1-1.12,2.642h10.319q-1.458,9.08-6.478,14.158a24.992,24.992,0,0,1-12.306,6.4l-2.228-3.776a22.916,22.916,0,0,0,10.269-4.419" transform="translate(-127.556 -5.228)" fill="#fff"/>
      <rect id="長方形_972" data-name="長方形 972" width="23.293" height="4.404" transform="translate(398.916 25.082)" fill="#fff"/>
      <path id="パス_449" data-name="パス 449" d="M54.518,5.84A4.934,4.934,0,1,1,49.582.906,4.931,4.931,0,0,1,54.518,5.84" transform="translate(-11.398 -0.231)" fill="#b2b2b3" fill-rule="evenodd"/>
      <path id="パス_450" data-name="パス 450" d="M40.092,12.684l8.745,2.845A33.735,33.735,0,0,0,46.108,19.3a29.924,29.924,0,0,0-1.824,3.319A30.942,30.942,0,0,0,41.419,34.61a28.01,28.01,0,0,0,.131,3.6,26.653,26.653,0,0,0,.419,2.673c.048.233.493,2.345.493,2.345h-.591c-1.315,0-6.329.006-6.332,0a30.865,30.865,0,0,1-1.612-5.2,29.629,29.629,0,0,1,.494-14.54,32,32,0,0,1,3.959-8.421c.424-.652.87-1.289,1.32-1.923Z" transform="translate(-8.49 -3.238)" fill="#fff" fill-rule="evenodd"/>
      <path id="パス_451" data-name="パス 451" d="M31.876,40.2l-9.581.017s-4.607-6.726-5.637-10.263a38.684,38.684,0,0,1-1.288-5.9,29.529,29.529,0,0,1,.5-9.754,30.544,30.544,0,0,1,1.644-5.521A39.41,39.41,0,0,1,21.57,1.543l.444-.6s4.637,5.842,4.666,5.877a9.62,9.62,0,0,1-.687,1.769q-.435,1.182-.787,2.394a29.366,29.366,0,0,0-1.021,4.971,31.121,31.121,0,0,0,.2,8.352,30,30,0,0,0,4.83,12.288c.557.806,1.12,1.609,1.708,2.388.116.157.957,1.222.957,1.222" transform="translate(-3.872 -0.24)" fill="#b2b2b3" fill-rule="evenodd"/>
      <path id="パス_452" data-name="パス 452" d="M34.268,14.551,29.591,8.7c-.358.923-.761,1.83-1.066,2.773a32.276,32.276,0,0,0-1.613,8.611q-.053,1.282.015,2.563a33.425,33.425,0,0,0,.614,4.861c.07.34.145.681.221,1.021s.162.7.244,1.048a7.875,7.875,0,0,1,.109-2.211,20.146,20.146,0,0,1,.308-2.08,20.822,20.822,0,0,1,1.3-4.134,20.077,20.077,0,0,1,1.09-2.164,16.737,16.737,0,0,1,2.1-2.95c.106-.116,1.387-1.446,1.352-1.489" transform="translate(-6.864 -2.222)" fill="#fff" fill-rule="evenodd"/>
      <path id="パス_453" data-name="パス 453" d="M18.985,43.577c-.9.017-10.3-.015-10.3-.015l-.116-.119c-.879-1.1-1.819-2.123-2.636-3.275a30.978,30.978,0,0,1-2.418-3.954c-.48-.939-.922-1.894-1.317-2.871A31.489,31.489,0,0,1,.184,25.325,29.432,29.432,0,0,1,.117,19.39a19.961,19.961,0,0,1,.522-3.485c.051-.186,1.053-.23,1.221-.256,1.908-.291,3.788-.748,5.682-1.12.269-.052.538-.105.807-.154a4.978,4.978,0,0,0,.792-.137,26.009,26.009,0,0,0-.611,6.171,29.211,29.211,0,0,0,.76,6.583,35.509,35.509,0,0,0,1.4,4.451A31.538,31.538,0,0,0,14.4,38.279a37.78,37.78,0,0,0,2.842,3.5c.557.617,1.141,1.23,1.746,1.8" transform="translate(0 -3.634)" fill="#fff" fill-rule="evenodd"/>
      <path id="パス_454" data-name="パス 454" d="M10.391,5.607A4.934,4.934,0,1,1,5.455.676a4.931,4.931,0,0,1,4.935,4.931" transform="translate(-0.134 -0.172)" fill="#b2b2b3" fill-rule="evenodd"/>
      <line id="線_690" data-name="線 690" x2="0.017" y2="0.026" transform="translate(18.405 39.954)" fill="#e54300"/>
    </g>
  </g>
</svg>
